<?xml version="1.0" encoding="UTF-8" standalone="no"?>
<!DOCTYPE svg PUBLIC "-//W3C//DTD SVG 1.1//EN" "http://www.w3.org/Graphics/SVG/1.1/DTD/svg11.dtd">
<svg width="100%" height="100%" viewBox="0 0 1834 381" version="1.1" xmlns="http://www.w3.org/2000/svg" xmlns:xlink="http://www.w3.org/1999/xlink" xml:space="preserve" xmlns:serif="http://www.serif.com/" style="fill-rule:evenodd;clip-rule:evenodd;stroke-linecap:round;stroke-linejoin:round;stroke-miterlimit:1.5;">
    <g transform="matrix(3.125,0,0,3.125,0,0)">
        <g transform="matrix(1.96413,0,0,2.57578,-91.435,-94.3255)">
            <rect x="47.062" y="37.008" width="297.691" height="46.434" style="fill:none;stroke:url(#_Linear1);stroke-width:0.87px;"/>
        </g>
        <g transform="matrix(1,0,0,1,57.9136,-77.314)">
            <path d="M119.789,152.214L125.717,152.214L125.717,130.554L133.431,130.554L133.431,125.918L112.189,125.918L112.189,130.554L119.789,130.554L119.789,152.214Z" style="fill:url(#_Linear2);fill-rule:nonzero;"/>
            <rect x="136.775" y="125.918" width="5.928" height="26.296" style="fill:url(#_Linear3);fill-rule:nonzero;"/>
            <path d="M164.097,145.944L166.377,152.214L172.647,152.214L162.273,125.918L156.079,125.918L146.047,152.214L151.937,152.214L154.179,145.944L164.097,145.944ZM162.539,141.498L155.737,141.498L157.789,135.798C158.587,133.594 158.701,133.29 159.119,131.694C159.765,133.784 159.917,134.202 160.487,135.798L162.539,141.498Z" style="fill:url(#_Linear4);fill-rule:nonzero;"/>
            <path d="M184.123,151.188C187.125,152.252 189.595,152.67 192.939,152.67C199.247,152.67 202.667,149.782 202.667,144.424C202.667,142.068 201.907,140.282 200.387,139.104C199.285,138.268 198.601,137.926 194.725,136.33C190.849,134.734 190.279,134.278 190.279,132.872C190.279,131.162 191.571,130.098 193.737,130.098C195.675,130.098 197.043,130.402 200.539,131.694L201.755,126.906C198.525,125.88 196.055,125.462 193.357,125.462C190.697,125.462 188.721,126.032 187.163,127.21C185.263,128.654 184.161,131.01 184.161,133.67C184.161,135.798 184.921,137.47 186.479,138.648C187.581,139.446 188.455,139.902 191.647,141.194C195.903,142.942 196.473,143.398 196.473,144.918C196.473,146.856 195.029,148.034 192.635,148.034C190.355,148.034 188.303,147.54 184.959,146.134L184.123,151.188Z" style="fill:url(#_Linear5);fill-rule:nonzero;"/>
            <path d="M225.657,144.386C225.657,140.662 225.467,139.294 224.821,137.47C223.567,134.088 220.489,132.302 215.929,132.302C212.623,132.302 210.153,133.252 208.443,135.19C206.771,137.052 205.897,139.56 205.897,142.562C205.897,149.212 209.697,152.67 216.917,152.67C220.071,152.67 222.579,152.062 225.125,150.732L223.187,146.666C221.097,147.92 219.045,148.566 216.993,148.566C213.877,148.566 212.129,147.16 211.901,144.386L225.657,144.386ZM211.901,140.624C212.053,137.964 213.611,136.33 216.005,136.33C218.361,136.33 219.767,137.888 219.881,140.624L211.901,140.624Z" style="fill:url(#_Linear6);fill-rule:nonzero;"/>
            <rect x="230.141" y="124.436" width="5.738" height="27.778" style="fill:url(#_Linear7);fill-rule:nonzero;"/>
            <path d="M260.199,144.386C260.199,140.662 260.009,139.294 259.363,137.47C258.109,134.088 255.031,132.302 250.471,132.302C247.165,132.302 244.695,133.252 242.985,135.19C241.313,137.052 240.439,139.56 240.439,142.562C240.439,149.212 244.239,152.67 251.459,152.67C254.613,152.67 257.121,152.062 259.667,150.732L257.729,146.666C255.639,147.92 253.587,148.566 251.535,148.566C248.419,148.566 246.671,147.16 246.443,144.386L260.199,144.386ZM246.443,140.624C246.595,137.964 248.153,136.33 250.547,136.33C252.903,136.33 254.309,137.888 254.423,140.624L246.443,140.624Z" style="fill:url(#_Linear8);fill-rule:nonzero;"/>
            <path d="M278.287,147.046C276.843,148.034 275.665,148.414 274.145,148.414C270.915,148.414 269.167,146.362 269.167,142.6C269.167,138.648 270.763,136.482 273.689,136.482C275.171,136.482 276.425,136.862 278.021,137.812L279.541,133.708C277.299,132.72 275.209,132.302 272.815,132.302C269.775,132.302 267.495,133.138 265.899,134.848C264.151,136.748 263.239,139.294 263.239,142.448C263.239,148.87 267.001,152.67 273.347,152.67C275.931,152.67 278.173,152.138 280.035,151.112L278.287,147.046Z" style="fill:url(#_Linear9);fill-rule:nonzero;"/>
            <path d="M284.671,136.938L284.671,144.766C284.671,147.806 284.937,149.364 285.735,150.504C286.723,151.948 288.395,152.67 290.789,152.67C292.385,152.67 293.905,152.442 295.501,151.986L295.007,147.768C294.057,148.034 293.563,148.148 292.955,148.148C291.131,148.148 290.409,147.236 290.409,144.766L290.409,136.938L294.703,136.938L294.703,132.758L290.409,132.758L290.409,127.514L284.671,128.578L284.671,132.758L281.555,132.758L281.555,136.938L284.671,136.938Z" style="fill:url(#_Linear10);fill-rule:nonzero;"/>
            <path d="M298.655,152.214L304.393,152.214L304.393,132.758L298.655,132.758L298.655,152.214ZM301.543,123.562C299.605,123.562 298.199,124.968 298.199,126.868C298.199,128.844 299.567,130.25 301.543,130.25C303.443,130.25 304.849,128.844 304.849,126.906C304.849,124.968 303.443,123.562 301.543,123.562Z" style="fill:url(#_Linear11);fill-rule:nonzero;"/>
            <path d="M318.909,132.302C315.755,132.302 313.399,133.1 311.727,134.734C309.865,136.52 308.877,139.218 308.877,142.372C308.877,145.526 309.637,147.882 311.309,149.782C313.019,151.758 315.451,152.67 318.871,152.67C322.063,152.67 324.343,151.872 326.053,150.238C327.953,148.376 328.903,145.792 328.903,142.486C328.903,139.446 328.105,137.052 326.471,135.19C324.761,133.214 322.329,132.302 318.909,132.302ZM318.909,136.482C321.531,136.482 322.975,138.61 322.975,142.486C322.975,146.362 321.531,148.49 318.871,148.49C316.249,148.49 314.805,146.362 314.805,142.41C314.805,138.61 316.287,136.482 318.909,136.482Z" style="fill:url(#_Linear12);fill-rule:nonzero;"/>
            <path d="M333.501,152.214L339.239,152.214L339.239,139.598C340.569,137.584 342.013,136.558 343.533,136.558C344.597,136.558 345.433,137.052 345.851,137.926C346.117,138.572 346.193,139.066 346.193,140.624L346.193,152.214L351.931,152.214L351.931,140.168C351.931,137.546 351.703,136.216 351.019,135.076C349.993,133.252 348.093,132.302 345.547,132.302C342.773,132.302 341.101,133.1 338.783,135.456L338.593,132.758L333.311,132.758L333.387,134.544C333.463,136.368 333.501,137.774 333.501,139.978L333.501,152.214Z" style="fill:url(#_Linear13);fill-rule:nonzero;"/>
            <path d="M372.109,152.214L378.037,152.214L378.037,130.554L385.751,130.554L385.751,125.918L364.509,125.918L364.509,130.554L372.109,130.554L372.109,152.214Z" style="fill:url(#_Linear14);fill-rule:nonzero;"/>
            <path d="M394.985,132.302C391.831,132.302 389.475,133.1 387.803,134.734C385.941,136.52 384.953,139.218 384.953,142.372C384.953,145.526 385.713,147.882 387.385,149.782C389.095,151.758 391.527,152.67 394.947,152.67C398.139,152.67 400.419,151.872 402.129,150.238C404.029,148.376 404.979,145.792 404.979,142.486C404.979,139.446 404.181,137.052 402.547,135.19C400.837,133.214 398.405,132.302 394.985,132.302ZM394.985,136.482C397.607,136.482 399.051,138.61 399.051,142.486C399.051,146.362 397.607,148.49 394.947,148.49C392.325,148.49 390.881,146.362 390.881,142.41C390.881,138.61 392.363,136.482 394.985,136.482Z" style="fill:url(#_Linear15);fill-rule:nonzero;"/>
            <path d="M418.127,132.302C414.973,132.302 412.617,133.1 410.945,134.734C409.083,136.52 408.095,139.218 408.095,142.372C408.095,145.526 408.855,147.882 410.527,149.782C412.237,151.758 414.669,152.67 418.089,152.67C421.281,152.67 423.561,151.872 425.271,150.238C427.171,148.376 428.121,145.792 428.121,142.486C428.121,139.446 427.323,137.052 425.689,135.19C423.979,133.214 421.547,132.302 418.127,132.302ZM418.127,136.482C420.749,136.482 422.193,138.61 422.193,142.486C422.193,146.362 420.749,148.49 418.089,148.49C415.467,148.49 414.023,146.362 414.023,142.41C414.023,138.61 415.505,136.482 418.127,136.482Z" style="fill:url(#_Linear16);fill-rule:nonzero;"/>
            <rect x="432.681" y="124.436" width="5.738" height="27.778" style="fill:url(#_Linear17);fill-rule:nonzero;"/>
        </g>
        <g transform="matrix(1,0,0,1,12.8722,-78.1955)">
            <path d="M106.058,110.437C121.822,110.437 134.619,123.234 134.619,138.997C134.619,154.76 121.822,167.558 106.058,167.558C90.295,167.558 77.498,154.76 77.498,138.997C77.498,123.234 90.295,110.437 106.058,110.437ZM115.632,138.997L100.485,146.997L100.485,130.997L115.632,138.997Z" style="fill:url(#_Linear18);"/>
        </g>
    </g>
    <defs>
        <linearGradient id="_Linear1" x1="0" y1="0" x2="1" y2="0" gradientUnits="userSpaceOnUse" gradientTransform="matrix(297.691,0,-0,297.691,47.0616,60.2254)"><stop offset="0" style="stop-color:rgb(0,255,185);stop-opacity:1"/><stop offset="1" style="stop-color:rgb(0,230,220);stop-opacity:1"/></linearGradient>
        <linearGradient id="_Linear2" x1="0" y1="0" x2="1" y2="0" gradientUnits="userSpaceOnUse" gradientTransform="matrix(329.46,0,0,230.465,111.961,142.41)"><stop offset="0" style="stop-color:rgb(0,255,185);stop-opacity:1"/><stop offset="1" style="stop-color:rgb(0,230,220);stop-opacity:1"/></linearGradient>
        <linearGradient id="_Linear3" x1="0" y1="0" x2="1" y2="0" gradientUnits="userSpaceOnUse" gradientTransform="matrix(329.46,0,0,230.465,111.961,142.41)"><stop offset="0" style="stop-color:rgb(0,255,185);stop-opacity:1"/><stop offset="1" style="stop-color:rgb(0,230,220);stop-opacity:1"/></linearGradient>
        <linearGradient id="_Linear4" x1="0" y1="0" x2="1" y2="0" gradientUnits="userSpaceOnUse" gradientTransform="matrix(329.46,0,0,230.465,111.961,142.41)"><stop offset="0" style="stop-color:rgb(0,255,185);stop-opacity:1"/><stop offset="1" style="stop-color:rgb(0,230,220);stop-opacity:1"/></linearGradient>
        <linearGradient id="_Linear5" x1="0" y1="0" x2="1" y2="0" gradientUnits="userSpaceOnUse" gradientTransform="matrix(329.46,0,0,230.465,111.961,142.41)"><stop offset="0" style="stop-color:rgb(0,255,185);stop-opacity:1"/><stop offset="1" style="stop-color:rgb(0,230,220);stop-opacity:1"/></linearGradient>
        <linearGradient id="_Linear6" x1="0" y1="0" x2="1" y2="0" gradientUnits="userSpaceOnUse" gradientTransform="matrix(329.46,0,0,230.465,111.961,142.41)"><stop offset="0" style="stop-color:rgb(0,255,185);stop-opacity:1"/><stop offset="1" style="stop-color:rgb(0,230,220);stop-opacity:1"/></linearGradient>
        <linearGradient id="_Linear7" x1="0" y1="0" x2="1" y2="0" gradientUnits="userSpaceOnUse" gradientTransform="matrix(329.46,0,0,230.465,111.961,142.41)"><stop offset="0" style="stop-color:rgb(0,255,185);stop-opacity:1"/><stop offset="1" style="stop-color:rgb(0,230,220);stop-opacity:1"/></linearGradient>
        <linearGradient id="_Linear8" x1="0" y1="0" x2="1" y2="0" gradientUnits="userSpaceOnUse" gradientTransform="matrix(329.46,0,0,230.465,111.961,142.41)"><stop offset="0" style="stop-color:rgb(0,255,185);stop-opacity:1"/><stop offset="1" style="stop-color:rgb(0,230,220);stop-opacity:1"/></linearGradient>
        <linearGradient id="_Linear9" x1="0" y1="0" x2="1" y2="0" gradientUnits="userSpaceOnUse" gradientTransform="matrix(329.46,0,0,230.465,111.961,142.41)"><stop offset="0" style="stop-color:rgb(0,255,185);stop-opacity:1"/><stop offset="1" style="stop-color:rgb(0,230,220);stop-opacity:1"/></linearGradient>
        <linearGradient id="_Linear10" x1="0" y1="0" x2="1" y2="0" gradientUnits="userSpaceOnUse" gradientTransform="matrix(329.46,0,0,230.465,111.961,142.41)"><stop offset="0" style="stop-color:rgb(0,255,185);stop-opacity:1"/><stop offset="1" style="stop-color:rgb(0,230,220);stop-opacity:1"/></linearGradient>
        <linearGradient id="_Linear11" x1="0" y1="0" x2="1" y2="0" gradientUnits="userSpaceOnUse" gradientTransform="matrix(329.46,0,0,230.465,111.961,142.41)"><stop offset="0" style="stop-color:rgb(0,255,185);stop-opacity:1"/><stop offset="1" style="stop-color:rgb(0,230,220);stop-opacity:1"/></linearGradient>
        <linearGradient id="_Linear12" x1="0" y1="0" x2="1" y2="0" gradientUnits="userSpaceOnUse" gradientTransform="matrix(329.46,0,0,230.465,111.961,142.41)"><stop offset="0" style="stop-color:rgb(0,255,185);stop-opacity:1"/><stop offset="1" style="stop-color:rgb(0,230,220);stop-opacity:1"/></linearGradient>
        <linearGradient id="_Linear13" x1="0" y1="0" x2="1" y2="0" gradientUnits="userSpaceOnUse" gradientTransform="matrix(329.46,0,0,230.465,111.961,142.41)"><stop offset="0" style="stop-color:rgb(0,255,185);stop-opacity:1"/><stop offset="1" style="stop-color:rgb(0,230,220);stop-opacity:1"/></linearGradient>
        <linearGradient id="_Linear14" x1="0" y1="0" x2="1" y2="0" gradientUnits="userSpaceOnUse" gradientTransform="matrix(329.46,0,0,230.465,111.961,142.41)"><stop offset="0" style="stop-color:rgb(0,255,185);stop-opacity:1"/><stop offset="1" style="stop-color:rgb(0,230,220);stop-opacity:1"/></linearGradient>
        <linearGradient id="_Linear15" x1="0" y1="0" x2="1" y2="0" gradientUnits="userSpaceOnUse" gradientTransform="matrix(329.46,0,0,230.465,111.961,142.41)"><stop offset="0" style="stop-color:rgb(0,255,185);stop-opacity:1"/><stop offset="1" style="stop-color:rgb(0,230,220);stop-opacity:1"/></linearGradient>
        <linearGradient id="_Linear16" x1="0" y1="0" x2="1" y2="0" gradientUnits="userSpaceOnUse" gradientTransform="matrix(329.46,0,0,230.465,111.961,142.41)"><stop offset="0" style="stop-color:rgb(0,255,185);stop-opacity:1"/><stop offset="1" style="stop-color:rgb(0,230,220);stop-opacity:1"/></linearGradient>
        <linearGradient id="_Linear17" x1="0" y1="0" x2="1" y2="0" gradientUnits="userSpaceOnUse" gradientTransform="matrix(329.46,0,0,230.465,111.961,142.41)"><stop offset="0" style="stop-color:rgb(0,255,185);stop-opacity:1"/><stop offset="1" style="stop-color:rgb(0,230,220);stop-opacity:1"/></linearGradient>
        <linearGradient id="_Linear18" x1="0" y1="0" x2="1" y2="0" gradientUnits="userSpaceOnUse" gradientTransform="matrix(57.1212,0,0,366.207,77.4979,138.997)"><stop offset="0" style="stop-color:rgb(0,255,185);stop-opacity:1"/><stop offset="1" style="stop-color:rgb(0,230,220);stop-opacity:1"/></linearGradient>
    </defs>
</svg>
