<?xml version="1.0" encoding="UTF-8" standalone="no"?><!DOCTYPE svg PUBLIC "-//W3C//DTD SVG 1.1//EN" "http://www.w3.org/Graphics/SVG/1.1/DTD/svg11.dtd"><svg width="100%" height="100%" viewBox="0 0 1828 374" version="1.1" xmlns="http://www.w3.org/2000/svg" xmlns:xlink="http://www.w3.org/1999/xlink" xml:space="preserve" xmlns:serif="http://www.serif.com/" style="fill-rule:evenodd;clip-rule:evenodd;stroke-linejoin:round;stroke-miterlimit:2;"><rect x="0" y="0" width="1827.2" height="373.761" style="fill:url(#_Linear1);"/><g><path d="M552.196,230.937l18.525,-0l-0,-67.688l24.106,0l-0,-14.487l-66.381,-0l-0,14.487l23.75,0l-0,67.688Z" style="fill:#000028;fill-rule:nonzero;"/><rect x="605.277" y="148.762" width="18.525" height="82.175" style="fill:#000028;fill-rule:nonzero;"/><path d="M690.658,211.343l7.125,19.594l19.594,-0l-32.419,-82.175l-19.356,-0l-31.35,82.175l18.406,-0l7.006,-19.594l30.994,0Zm-4.869,-13.894l-21.256,0l6.413,-17.812c2.493,-6.888 2.85,-7.838 4.156,-12.825c2.019,6.531 2.494,7.837 4.275,12.825l6.412,17.812Z" style="fill:#000028;fill-rule:nonzero;"/><path d="M753.239,227.731c9.382,3.325 17.1,4.631 27.55,4.631c19.713,-0 30.4,-9.025 30.4,-25.769c0,-7.362 -2.375,-12.944 -7.125,-16.625c-3.443,-2.612 -5.581,-3.681 -17.693,-8.669c-12.113,-4.987 -13.894,-6.412 -13.894,-10.806c-0,-5.344 4.037,-8.669 10.806,-8.669c6.056,0 10.331,0.95 21.256,4.988l3.8,-14.963c-10.093,-3.206 -17.812,-4.512 -26.243,-4.512c-8.313,-0 -14.488,1.781 -19.357,5.462c-5.937,4.513 -9.381,11.875 -9.381,20.188c0,6.65 2.375,11.875 7.244,15.556c3.444,2.494 6.175,3.919 16.15,7.956c13.3,5.463 15.081,6.888 15.081,11.638c0,6.056 -4.512,9.737 -11.994,9.737c-7.125,0 -13.537,-1.543 -23.987,-5.937l-2.613,15.794Z" style="fill:#000028;fill-rule:nonzero;"/><path d="M883.033,206.474c0,-11.637 -0.594,-15.912 -2.612,-21.612c-3.919,-10.569 -13.538,-16.15 -27.788,-16.15c-10.331,-0 -18.05,2.969 -23.394,9.025c-5.225,5.819 -7.956,13.656 -7.956,23.037c0,20.782 11.875,31.588 34.438,31.588c9.856,-0 17.693,-1.9 25.65,-6.056l-6.057,-12.707c-6.531,3.919 -12.943,5.938 -19.356,5.938c-9.737,-0 -15.2,-4.394 -15.912,-13.063l42.987,0Zm-42.987,-11.756c0.475,-8.312 5.343,-13.419 12.825,-13.419c7.362,0 11.756,4.869 12.112,13.419l-24.937,0Z" style="fill:#000028;fill-rule:nonzero;"/><rect x="897.046" y="144.131" width="17.931" height="86.806" style="fill:#000028;fill-rule:nonzero;"/><path d="M990.977,206.474c-0,-11.637 -0.594,-15.912 -2.613,-21.612c-3.918,-10.569 -13.537,-16.15 -27.787,-16.15c-10.331,-0 -18.05,2.969 -23.394,9.025c-5.225,5.819 -7.956,13.656 -7.956,23.037c-0,20.782 11.875,31.588 34.437,31.588c9.857,-0 17.694,-1.9 25.65,-6.056l-6.056,-12.707c-6.531,3.919 -12.944,5.938 -19.356,5.938c-9.738,-0 -15.2,-4.394 -15.913,-13.063l42.988,0Zm-42.988,-11.756c0.475,-8.312 5.344,-13.419 12.825,-13.419c7.363,0 11.757,4.869 12.113,13.419l-24.938,0Z" style="fill:#000028;fill-rule:nonzero;"/><path d="M1047.5,214.787c-4.513,3.087 -8.194,4.275 -12.944,4.275c-10.094,-0 -15.556,-6.413 -15.556,-18.169c-0,-12.35 4.987,-19.119 14.131,-19.119c4.631,0 8.55,1.188 13.538,4.157l4.75,-12.825c-7.007,-3.088 -13.538,-4.394 -21.019,-4.394c-9.5,-0 -16.625,2.612 -21.613,7.956c-5.462,5.938 -8.312,13.894 -8.312,23.75c-0,20.069 11.756,31.944 31.587,31.944c8.075,-0 15.082,-1.663 20.9,-4.869l-5.462,-12.706Z" style="fill:#000028;fill-rule:nonzero;"/><path d="M1067.45,183.199l-0,24.463c-0,9.5 0.831,14.369 3.325,17.931c3.087,4.513 8.312,6.769 15.794,6.769c4.987,-0 9.737,-0.713 14.725,-2.138l-1.544,-13.181c-2.969,0.831 -4.513,1.188 -6.413,1.188c-5.7,-0 -7.956,-2.85 -7.956,-10.569l0,-24.463l13.419,0l-0,-13.062l-13.419,-0l0,-16.388l-17.931,3.325l-0,13.063l-9.738,-0l0,13.062l9.738,0Z" style="fill:#000028;fill-rule:nonzero;"/><path d="M1111.15,230.937l17.931,-0l0,-60.8l-17.931,-0l-0,60.8Zm9.025,-89.538c-6.056,0 -10.45,4.394 -10.45,10.332c-0,6.175 4.275,10.568 10.45,10.568c5.937,0 10.331,-4.393 10.331,-10.45c0,-6.056 -4.394,-10.45 -10.331,-10.45Z" style="fill:#000028;fill-rule:nonzero;"/><path d="M1174.45,168.712c-9.857,-0 -17.219,2.494 -22.444,7.6c-5.819,5.581 -8.906,14.012 -8.906,23.869c-0,9.856 2.375,17.218 7.6,23.156c5.343,6.175 12.943,9.025 23.631,9.025c9.975,-0 17.1,-2.494 22.444,-7.6c5.937,-5.819 8.906,-13.894 8.906,-24.225c-0,-9.5 -2.494,-16.981 -7.6,-22.8c-5.344,-6.175 -12.944,-9.025 -23.631,-9.025Zm-0,13.062c8.193,0 12.706,6.65 12.706,18.763c-0,12.112 -4.513,18.762 -12.825,18.762c-8.194,0 -12.706,-6.65 -12.706,-19c-0,-11.875 4.631,-18.525 12.825,-18.525Z" style="fill:#000028;fill-rule:nonzero;"/><path d="M1220.05,230.937l17.931,-0l-0,-39.425c4.156,-6.294 8.669,-9.5 13.419,-9.5c3.325,-0 5.937,1.544 7.243,4.275c0.832,2.019 1.069,3.562 1.069,8.431l0,36.219l17.931,-0l0,-37.644c0,-8.194 -0.712,-12.35 -2.85,-15.912c-3.206,-5.7 -9.143,-8.669 -17.1,-8.669c-8.668,-0 -13.893,2.494 -21.137,9.856l-0.594,-8.431l-16.506,-0l0.237,5.581c0.238,5.7 0.357,10.094 0.357,16.981l-0,38.238Z" style="fill:#000028;fill-rule:nonzero;"/><path d="M1340.7,230.937l18.525,-0l-0,-67.688l24.106,0l-0,-14.487l-66.381,-0l-0,14.487l23.75,0l-0,67.688Z" style="fill:#000028;fill-rule:nonzero;"/><path d="M1412.18,168.712c-9.856,-0 -17.219,2.494 -22.444,7.6c-5.818,5.581 -8.906,14.012 -8.906,23.869c0,9.856 2.375,17.218 7.6,23.156c5.344,6.175 12.944,9.025 23.631,9.025c9.975,-0 17.1,-2.494 22.444,-7.6c5.938,-5.819 8.906,-13.894 8.906,-24.225c0,-9.5 -2.493,-16.981 -7.6,-22.8c-5.343,-6.175 -12.943,-9.025 -23.631,-9.025Zm0,13.062c8.194,0 12.706,6.65 12.706,18.763c0,12.112 -4.512,18.762 -12.825,18.762c-8.193,0 -12.706,-6.65 -12.706,-19c0,-11.875 4.631,-18.525 12.825,-18.525Z" style="fill:#000028;fill-rule:nonzero;"/><path d="M1484.5,168.712c-9.856,-0 -17.219,2.494 -22.444,7.6c-5.819,5.581 -8.906,14.012 -8.906,23.869c-0,9.856 2.375,17.218 7.6,23.156c5.344,6.175 12.944,9.025 23.631,9.025c9.975,-0 17.1,-2.494 22.444,-7.6c5.937,-5.819 8.906,-13.894 8.906,-24.225c0,-9.5 -2.494,-16.981 -7.6,-22.8c-5.344,-6.175 -12.944,-9.025 -23.631,-9.025Zm-0,13.062c8.194,0 12.706,6.65 12.706,18.763c0,12.112 -4.512,18.762 -12.825,18.762c-8.194,0 -12.706,-6.65 -12.706,-19c-0,-11.875 4.631,-18.525 12.825,-18.525Z" style="fill:#000028;fill-rule:nonzero;"/><rect x="1529.98" y="144.131" width="17.931" height="86.806" style="fill:#000028;fill-rule:nonzero;"/><path d="M368.533,97.629c49.26,-0 89.252,39.992 89.252,89.252c0,49.259 -39.992,89.252 -89.252,89.252c-49.259,-0 -89.252,-39.993 -89.252,-89.252c0,-49.26 39.993,-89.252 89.252,-89.252Zm29.916,89.252l-47.332,25l0,-50l47.332,25Z" style="fill:#000028;"/></g><defs><linearGradient id="_Linear1" x1="0" y1="0" x2="1" y2="0" gradientUnits="userSpaceOnUse" gradientTransform="matrix(1827.2,0,0,2396.2,0,186.881)"><stop offset="0" style="stop-color:#00ffb9;stop-opacity:1"/><stop offset="1" style="stop-color:#00e6dc;stop-opacity:1"/></linearGradient></defs></svg>