<?xml version="1.0" encoding="UTF-8" standalone="no"?>
<!DOCTYPE svg PUBLIC "-//W3C//DTD SVG 1.1//EN" "http://www.w3.org/Graphics/SVG/1.1/DTD/svg11.dtd">
<svg xmlns="http://www.w3.org/2000/svg" viewBox="0 0 100.7 98.3"><g transform="translate(-1.5683013759017703, -2.666111778164865) scale(1.568301001989674)" class="css-r6p871" fill="#180f3d"><g xmlns="http://www.w3.org/2000/svg"><g><path d="M22.6,8.2c-0.3-0.4-0.5-0.9-0.6-1.4L8.9,14.4c0.3,0.4,0.6,0.8,0.8,1.3L22.6,8.2z"></path></g><g><path d="M12.2,29.1L8,21.8c-0.4,0.3-0.8,0.6-1.3,0.8l4.6,8l-4.6,8C7.2,38.8,7.7,39,8,39.4l4.2-7.3l2.9,5L9,40.4    c0.3,0.4,0.5,0.8,0.7,1.3l6.2-3.3l7.6,13.2c0.4-0.3,0.8-0.6,1.2-0.9l-7.5-13l5.8-3.1c-0.3-0.4-0.6-0.8-0.7-1.3l-5.8,3.1l-3.4-5.8    l2.8-4.9l6.3,4c0.2-0.5,0.4-0.9,0.7-1.3l-6.2-4l8.1-14.1c-0.5-0.2-0.9-0.5-1.2-0.9l-8.2,14.2l-5.8-3.7c-0.2,0.5-0.5,0.9-0.8,1.3    l5.9,3.8L12.2,29.1z"></path></g><g><path d="M44.4,19.9l-5.6,3.5l-8.1-14c-0.4,0.3-0.8,0.6-1.2,0.8l8,13.9l-6.3,3.9c0,0,0,0,0,0c0.3,0.4,0.6,0.8,0.8,1.3l6.3-3.9    l2.9,5.1l-1.7,2.9c0.1,0,0.2,0,0.3,0c0.4,0,0.9,0.1,1.3,0.4l1-1.7l1.4,2.4c0.2-0.1,0.4-0.2,0.6-0.2l0.2-1.3l-1.4-2.4l4.6-7.9    c-0.5-0.2-0.9-0.4-1.3-0.7l-4.1,7.1l-2.5-4.4l5.7-3.5C44.9,20.8,44.7,20.4,44.4,19.9z"></path></g><g><path d="M48.8,22.9v7.7h1.5v-7.8c-0.4,0.1-0.7,0.1-1.1,0.1C49.1,22.9,48.9,22.9,48.8,22.9z"></path></g><g><path d="M4,22.9v15.4c0.3,0,0.5-0.1,0.8-0.1s0.5,0,0.8,0.1V22.9C5.3,22.9,5,23,4.8,23S4.3,22.9,4,22.9z"></path></g><g><path d="M45.2,14.3L32.3,6.8c-0.1,0.5-0.3,1-0.6,1.4l12.7,7.3C44.6,15.1,44.8,14.7,45.2,14.3z"></path></g><g><path d="M8.9,46.8L22,54.3c0.1-0.5,0.3-1,0.5-1.4L9.7,45.5C9.5,45.9,9.2,46.4,8.9,46.8z"></path></g><g><path d="M36.5,35.9L32,33.6c-0.2,0.5-0.5,0.9-0.8,1.3l4.2,2.2L36.5,35.9z"></path></g><g><path d="M64.4,45.1l-2.6-0.5c-0.3-1-0.7-2-1.2-3l1.5-2.2c0.2-0.3,0.2-0.7-0.1-1l-3.4-3.4c-0.3-0.3-0.7-0.3-1-0.1l-2.2,1.5    c-0.9-0.5-1.9-0.9-2.9-1.2l-0.5-2.6c-0.1-0.4-0.4-0.6-0.7-0.6h-4.8c-0.4,0-0.7,0.3-0.7,0.6l-0.5,2.6c-0.1,0-0.2,0.1-0.3,0.1    c-0.9,0.3-1.8,0.6-2.7,1.1l-2.2-1.5c-0.3-0.2-0.7-0.2-1,0.1L36,38.5c-0.3,0.3-0.3,0.7-0.1,1l1.5,2.2c-0.5,0.9-0.9,1.9-1.2,3    l-2.6,0.5c-0.4,0.1-0.6,0.4-0.6,0.7v4.8c0,0.4,0.3,0.7,0.6,0.7l2.6,0.5c0.3,1,0.7,2,1.2,2.9l-1.5,2.2c-0.2,0.3-0.2,0.7,0.1,1    l3.3,3.4c0.3,0.3,0.7,0.3,1,0.1l2.2-1.5c0.9,0.5,1.9,0.9,3,1.2l0.5,2.6c0.1,0.4,0.4,0.6,0.7,0.6h4.8c0.4,0,0.7-0.3,0.7-0.6    l0.5-2.6c1-0.3,2-0.7,2.9-1.2l2.2,1.5c0.3,0.2,0.7,0.2,1-0.1l3.4-3.4c0.3-0.3,0.3-0.7,0.1-1l-1.5-2.2c0.5-0.9,0.9-1.9,1.2-2.9    l2.6-0.5c0.4-0.1,0.6-0.4,0.6-0.7v-4.8C65,45.5,64.7,45.1,64.4,45.1z M49,54.5c-3.5,0-6.3-2.8-6.3-6.3v-0.1c0,0,0-0.1,0-0.1    c0.1-2.4,1.6-4.5,3.8-5.5c0.6-0.3,1.2-0.4,1.9-0.5c0.2,0,0.5,0,0.7,0c0.2,0,0.3,0,0.5,0c3.3,0.3,5.8,3,5.8,6.3    C55.3,51.7,52.5,54.5,49,54.5z"></path></g><g><path d="M27.2,51.6c-2.1,0-3.8,1.7-3.8,3.8c0,2.1,1.7,3.8,3.8,3.8s3.8-1.7,3.8-3.8C30.9,53.3,29.2,51.6,27.2,51.6z"></path></g><g><path d="M27.2,9.3c2.1,0,3.8-1.7,3.8-3.8c0-2.1-1.7-3.8-3.8-3.8s-3.8,1.7-3.8,3.8C23.4,7.6,25.1,9.3,27.2,9.3z"></path></g><g><path d="M4.8,21.5c2.1,0,3.8-1.7,3.8-3.8c0-2.1-1.7-3.8-3.8-3.8c-2.1,0-3.8,1.7-3.8,3.8C1,19.8,2.7,21.5,4.8,21.5z"></path></g><g><path d="M4.8,39.7c-2.1,0-3.8,1.7-3.8,3.8c0,2.1,1.7,3.8,3.8,3.8c2.1,0,3.8-1.7,3.8-3.8C8.6,41.4,6.9,39.7,4.8,39.7z"></path></g><g><path d="M27.2,27.7c-2.1,0-3.8,1.7-3.8,3.8c0,2.1,1.7,3.8,3.8,3.8s3.8-1.7,3.8-3.8C30.9,29.4,29.2,27.7,27.2,27.7z"></path></g><g><path d="M49.2,21.4c2.1,0,3.8-1.7,3.8-3.8c0-2.1-1.7-3.8-3.8-3.8c-2.1,0-3.8,1.7-3.8,3.8C45.4,19.7,47.1,21.4,49.2,21.4z"></path></g></g></g></svg>
