<?xml version="1.0" encoding="UTF-8"?>
<!DOCTYPE svg PUBLIC "-//W3C//DTD SVG 1.1//EN" "http://www.w3.org/Graphics/SVG/1.1/DTD/svg11.dtd">
<!-- Creator: CorelDRAW 2021 (64-Bit) -->
<svg xmlns="http://www.w3.org/2000/svg" xml:space="preserve" width="150mm" height="150mm" version="1.1" style="shape-rendering:geometricPrecision; text-rendering:geometricPrecision; image-rendering:optimizeQuality; fill-rule:evenodd; clip-rule:evenodd"
viewBox="0 0 15000 15000"
 xmlns:xlink="http://www.w3.org/1999/xlink"
 xmlns:xodm="http://www.corel.com/coreldraw/odm/2003">
 <defs>
  <style type="text/css">
   <![CDATA[
    .fil0 {fill:blue}
    .fil1 {fill:blue;fill-rule:nonzero}
   ]]>
  </style>
     <clipPath id="id0">
      <path d="M10293.19 3487.17l-204.33 1540.53 0 0 -4070.39 896.31 0 0 -71.42 12.44 0 0 -105.58 405.42 0 0 -2169.67 828.45 0 0 2294.06 -700.32 0 0 90.33 -364.27 0 0 4477.8 -656.94 0 0 216.13 -2242.82 0 0 -456.93 281.2z"/>
     </clipPath>
     <clipPath id="id1">
      <path d="M10293.19 3487.17l-204.33 1540.53 -4070.39 896.31 -71.42 12.44 -105.58 405.42 -2169.67 828.45 2294.06 -700.32 90.33 -364.27 4477.8 -656.94 216.13 -2242.82 -456.93 281.2z"/>
     </clipPath>
     <clipPath id="id2">
      <path d="M9579.47 5588.8l-211.38 1463.49 0 0 -3115.04 -73.33 0 0 -154.8 -3.65 0 0 -316.86 394.02 0 0 -2016.28 -22.61 0 0 2112.56 174.95 0 0 266.19 -355.52 0 0 3511.47 146.72 0 0 288.13 -1777.46 0 0 -363.99 53.39z"/>
     </clipPath>
     <clipPath id="id3">
      <path d="M9579.47 5588.8l-211.38 1463.49 -3115.04 -73.33 -154.8 -3.65 -316.86 394.02 -2016.28 -22.61 2112.56 174.95 266.19 -355.52 3511.47 146.72 288.13 -1777.46 -363.99 53.39z"/>
     </clipPath>
     <clipPath id="id4">
      <path d="M4072.11 9282.21c-153.66,-463.97 -432.22,-876.68 -805.67,-1193.09 -252.13,-201.4 -485.51,-425.36 -697.05,-668.8 -115.36,-126.15 -160.91,-300.99 -121.89,-467.19 87.46,-164.59 222.41,-299.43 387.29,-387.09 699.82,-425.73 1463.48,-737.61 2261.78,-923.91 970.45,-331.83 1822.72,-770.73 2732.04,-1164.54 1429.99,-619.27 2864.63,-1209.43 4081.41,-2196.58 510.38,-390.41 1760.44,-1287.87 2316.95,-1440 -218.86,69.94 -1307.74,472.71 -1535.95,608.59l-1056.96 567.71c-2813.12,1516.21 -5779.1,2733.41 -8847.59,3631.12 -543.5,106.67 -1053.67,340.21 -1488.98,681.78 -134.95,155.31 -200.57,358.75 -181.6,563.39 18.91,204.63 119.95,392.03 281.18,520.1l808.96 681.41 808.8 611.05c338.96,163.91 581.69,476.25 656.25,844.38 74.5,368.18 -29.47,751.88 -278.1,1034.07l-1161.3 1062.61 -698.72 627.56c-338.49,412.55 -416.08,979.12 -200.41,1466.83 -157.15,-362.09 -122.78,-778.81 91.22,-1110.68 41.79,-93.08 105.22,-174.9 185,-238.7 185.83,-133.29 365.76,-274.59 539.21,-423.6 383.53,-316.1 808.07,-579.48 1262.03,-782.92 357.56,-188.28 637.65,-495.16 791.92,-867.82 71.21,-350.26 25.66,-713.81 -129.82,-1035.68z"/>
     </clipPath>
     <clipPath id="id5">
      <path d="M5648.79 8360.27l-1856.2 -791.05 0 0 1859.86 999.8 0 0 544.02 -446.77 0 0 2291.77 869.33 0 0 618.11 -1701.63 0 0 -397.59 -16.61 0 0 -449.72 1346.36 0 0 -2081.74 -691.1 0 0 -528.51 431.67z"/>
     </clipPath>
     <clipPath id="id6">
      <path d="M5648.79 8360.27l-1856.2 -791.05 1859.86 999.8 544.02 -446.77 2291.77 869.33 618.11 -1701.63 -397.59 -16.61 -449.72 1346.36 -2081.74 -691.1 -528.51 431.67z"/>
     </clipPath>
     <clipPath id="id7">
      <path d="M5157.58 9032.2l-1531.55 -1096.31 0 0 1498.12 1259.28 0 0 394.03 -203.7 0 0 1780.66 1207.46 0 0 760.99 -1369.91 0 0 -336.56 -127.65 0 0 -590.26 1096.93 0 0 -1629.72 -977.19 0 0 -345.71 211.09z"/>
     </clipPath>
     <clipPath id="id8">
      <path d="M5157.58 9032.2l-1531.55 -1096.31 1498.12 1259.28 394.03 -203.7 1780.66 1207.46 760.99 -1369.91 -336.56 -127.65 -590.26 1096.93 -1629.72 -977.19 -345.71 211.09z"/>
     </clipPath>
     <clipPath id="id9">
      <path d="M6017.43 10684.97l-932.88 -1173.86 0 0 -299.99 84.33 0 0 -480.71 -616.88 0 0 411.48 770.11 0 0 326.9 -103.44 0 0 1011.4 1498.97 0 0 943.7 -1149.7 0 0 -248.32 -168.39 0 0 -731.58 858.86z"/>
     </clipPath>
     <clipPath id="id10">
      <path d="M6017.43 10684.97l-932.88 -1173.86 -299.99 84.33 -480.71 -616.88 411.48 770.11 326.9 -103.44 1011.4 1498.97 943.7 -1149.7 -248.32 -168.39 -731.58 858.86z"/>
     </clipPath>
     <clipPath id="id11">
      <path d="M5202.67 11115.29l-448.05 -654.74 0 0 438.13 942.45 0 0 628.45 -603.23 0 0 -113.79 -168.7 0 0 -504.74 484.22z"/>
     </clipPath>
     <clipPath id="id12">
      <path d="M5202.67 11115.29l-448.05 -654.74 438.13 942.45 628.45 -603.23 -113.79 -168.7 -504.74 484.22z"/>
     </clipPath>
     <clipPath id="id13">
      <path d="M10686.75 3863.68l-97.07 1007.3z"/>
     </clipPath>
     <clipPath id="id14">
      <path d="M10589.68 4870.98c971.91,-185.89 1682.91,-1019.54 1708.61,-2005.8 -354.32,562.09 -949.13,930.43 -1611.54,998.5l-97.07 1007.3z"/>
     </clipPath>
     <clipPath id="id15">
      <path d="M9868.54 6005.46l-108.46 669.07z"/>
     </clipPath>
     <clipPath id="id16">
      <path d="M9760.08 6674.53c793.08,122.61 1536.05,-415.42 1662.01,-1205.63 -374.75,456.36 -975.88,663.7 -1553.55,536.56l-108.46 669.07z"/>
     </clipPath>
     <clipPath id="id17">
      <path d="M8979.39 7639.43l-230.5 634.59z"/>
     </clipPath>
     <clipPath id="id18">
      <path d="M8748.89 8274.02c546.06,140.16 1122.32,-64.17 1456.27,-517.09 -407.51,128.49 -850.23,85.99 -1225.77,-117.5l-230.5 634.59z"/>
     </clipPath>
     <clipPath id="id19">
      <path d="M7790.41 9314.03l-325.91 586.62z"/>
     </clipPath>
     <clipPath id="id20">
      <path d="M7464.5 9900.65c569.84,155.73 1178.17,-29.69 1562.7,-476.93 -409.71,134.94 -857.39,95.1 -1236.79,-109.69l-325.91 586.62z"/>
     </clipPath>
     <clipPath id="id21">
      <path d="M6761.5 10281.85l-424.8 517.55z"/>
     </clipPath>
     <clipPath id="id22">
      <path d="M6336.7 10799.4c444.08,248.18 991.13,220.52 1407.36,-71.72 -377.88,5.68 -738.63,-158.12 -982.56,-445.83l-424.8 517.55z"/>
     </clipPath>
     <clipPath id="id23">
      <path d="M5279.68 11319.51l277.79 -266.62z"/>
     </clipPath>
     <clipPath id="id24">
      <path d="M5279.68 11319.51l277.79 -266.62c138.29,270.58 390.16,465.58 687.43,531.88 -340.01,190 -770.5,71.36 -965.22,-265.26z"/>
     </clipPath>
 </defs>
 <g id="Layer_x0020_1">
  <metadata id="CorelCorpID_0Corel-Layer"/>
  <g id="_2606448883040">
   <g>
    <polygon class="fil0" points="10293.19,3487.17 10088.86,5027.7 10088.86,5027.7 6018.47,5924.01 6018.47,5924.01 5947.05,5936.45 5947.05,5936.45 5841.47,6341.87 5841.47,6341.87 3671.8,7170.32 3671.8,7170.32 5965.86,6470 5965.86,6470 6056.19,6105.73 6056.19,6105.73 10533.99,5448.79 10533.99,5448.79 10750.12,3205.97 10750.12,3205.97 "/>
    <g style="clip-path:url(#id0)">
    </g>
   </g>
   <g>
    <polygon class="fil0" points="10293.19,3487.17 10088.86,5027.7 6018.47,5924.01 5947.05,5936.45 5841.47,6341.87 3671.8,7170.32 5965.86,6470 6056.19,6105.73 10533.99,5448.79 10750.12,3205.97 "/>
    <g style="clip-path:url(#id1)">
    </g>
   </g>
   <g>
    <polygon class="fil0" points="9579.47,5588.8 9368.09,7052.29 9368.09,7052.29 6253.05,6978.96 6253.05,6978.96 6098.25,6975.31 6098.25,6975.31 5781.39,7369.33 5781.39,7369.33 3765.11,7346.72 3765.11,7346.72 5877.67,7521.67 5877.67,7521.67 6143.86,7166.15 6143.86,7166.15 9655.33,7312.87 9655.33,7312.87 9943.46,5535.41 9943.46,5535.41 "/>
    <g style="clip-path:url(#id2)">
    </g>
   </g>
   <g>
    <polygon class="fil0" points="9579.47,5588.8 9368.09,7052.29 6253.05,6978.96 6098.25,6975.31 5781.39,7369.33 3765.11,7346.72 5877.67,7521.67 6143.86,7166.15 9655.33,7312.87 9943.46,5535.41 "/>
    <g style="clip-path:url(#id3)">
    </g>
   </g>
   <g>
    <path class="fil0" d="M4072.11 9282.21c-153.66,-463.97 -432.22,-876.68 -805.67,-1193.09 -252.13,-201.4 -485.51,-425.36 -697.05,-668.8 -115.36,-126.15 -160.91,-300.99 -121.89,-467.19 87.46,-164.59 222.41,-299.43 387.29,-387.09 699.82,-425.73 1463.48,-737.61 2261.78,-923.91 970.45,-331.83 1822.72,-770.73 2732.04,-1164.54 1429.99,-619.27 2864.63,-1209.43 4081.41,-2196.58 510.38,-390.41 1760.44,-1287.87 2316.95,-1440 -218.86,69.94 -1307.74,472.71 -1535.95,608.59l-1056.96 567.71c-2813.12,1516.21 -5779.1,2733.41 -8847.59,3631.12 -543.5,106.67 -1053.67,340.21 -1488.98,681.78 -134.95,155.31 -200.57,358.75 -181.6,563.39 18.91,204.63 119.95,392.03 281.18,520.1l808.96 681.41 808.8 611.05c338.96,163.91 581.69,476.25 656.25,844.38 74.5,368.18 -29.47,751.88 -278.1,1034.07l-1161.3 1062.61 -698.72 627.56c-338.49,412.55 -416.08,979.12 -200.41,1466.83 -157.15,-362.09 -122.78,-778.81 91.22,-1110.68 41.79,-93.08 105.22,-174.9 185,-238.7 185.83,-133.29 365.76,-274.59 539.21,-423.6 383.53,-316.1 808.07,-579.48 1262.03,-782.92 357.56,-188.28 637.65,-495.16 791.92,-867.82 71.21,-350.26 25.66,-713.81 -129.82,-1035.68z"/>
    <g style="clip-path:url(#id4)">
    </g>
   </g>
   <g>
    <polygon class="fil0" points="5648.79,8360.27 3792.59,7569.22 3792.59,7569.22 5652.45,8569.02 5652.45,8569.02 6196.47,8122.25 6196.47,8122.25 8488.24,8991.58 8488.24,8991.58 9106.35,7289.95 9106.35,7289.95 8708.76,7273.34 8708.76,7273.34 8259.04,8619.7 8259.04,8619.7 6177.3,7928.6 6177.3,7928.6 "/>
    <g style="clip-path:url(#id5)">
    </g>
   </g>
   <g>
    <polygon class="fil0" points="5648.79,8360.27 3792.59,7569.22 5652.45,8569.02 6196.47,8122.25 8488.24,8991.58 9106.35,7289.95 8708.76,7273.34 8259.04,8619.7 6177.3,7928.6 "/>
    <g style="clip-path:url(#id6)">
    </g>
   </g>
   <g>
    <polygon class="fil0" points="5157.58,9032.2 3626.03,7935.89 3626.03,7935.89 5124.15,9195.17 5124.15,9195.17 5518.18,8991.47 5518.18,8991.47 7298.84,10198.93 7298.84,10198.93 8059.83,8829.02 8059.83,8829.02 7723.27,8701.37 7723.27,8701.37 7133.01,9798.3 7133.01,9798.3 5503.29,8821.11 5503.29,8821.11 "/>
    <g style="clip-path:url(#id7)">
    </g>
   </g>
   <g>
    <polygon class="fil0" points="5157.58,9032.2 3626.03,7935.89 5124.15,9195.17 5518.18,8991.47 7298.84,10198.93 8059.83,8829.02 7723.27,8701.37 7133.01,9798.3 5503.29,8821.11 "/>
    <g style="clip-path:url(#id8)">
    </g>
   </g>
   <g>
    <polygon class="fil0" points="6017.43,10684.97 5084.55,9511.11 5084.55,9511.11 4784.56,9595.44 4784.56,9595.44 4303.85,8978.56 4303.85,8978.56 4715.33,9748.67 4715.33,9748.67 5042.23,9645.23 5042.23,9645.23 6053.63,11144.2 6053.63,11144.2 6997.33,9994.5 6997.33,9994.5 6749.01,9826.11 6749.01,9826.11 "/>
    <g style="clip-path:url(#id9)">
    </g>
   </g>
   <g>
    <polygon class="fil0" points="6017.43,10684.97 5084.55,9511.11 4784.56,9595.44 4303.85,8978.56 4715.33,9748.67 5042.23,9645.23 6053.63,11144.2 6997.33,9994.5 6749.01,9826.11 "/>
    <g style="clip-path:url(#id10)">
    </g>
   </g>
   <g>
    <polygon class="fil0" points="5202.67,11115.29 4754.62,10460.55 4754.62,10460.55 5192.75,11403 5192.75,11403 5821.2,10799.77 5821.2,10799.77 5707.41,10631.07 5707.41,10631.07 "/>
    <g style="clip-path:url(#id11)">
    </g>
   </g>
   <g>
    <polygon class="fil0" points="5202.67,11115.29 4754.62,10460.55 5192.75,11403 5821.2,10799.77 5707.41,10631.07 "/>
    <g style="clip-path:url(#id12)">
    </g>
   </g>
   <g>
    <line class="fil0" x1="10686.75" y1="3863.68" x2="10589.68" y2= "4870.98" />
    <g style="clip-path:url(#id13)">
    </g>
   </g>
   <g>
    <path class="fil0" d="M10589.68 4870.98c971.91,-185.89 1682.91,-1019.54 1708.61,-2005.8 -354.32,562.09 -949.13,930.43 -1611.54,998.5l-97.07 1007.3z"/>
    <g style="clip-path:url(#id14)">
    </g>
   </g>
   <g>
    <line class="fil0" x1="9868.54" y1="6005.46" x2="9760.08" y2= "6674.53" />
    <g style="clip-path:url(#id15)">
    </g>
   </g>
   <g>
    <path class="fil0" d="M9760.08 6674.53c793.08,122.61 1536.05,-415.42 1662.01,-1205.63 -374.75,456.36 -975.88,663.7 -1553.55,536.56l-108.46 669.07z"/>
    <g style="clip-path:url(#id16)">
    </g>
   </g>
   <g>
    <line class="fil0" x1="8979.39" y1="7639.43" x2="8748.89" y2= "8274.02" />
    <g style="clip-path:url(#id17)">
    </g>
   </g>
   <g>
    <path class="fil0" d="M8748.89 8274.02c546.06,140.16 1122.32,-64.17 1456.27,-517.09 -407.51,128.49 -850.23,85.99 -1225.77,-117.5l-230.5 634.59z"/>
    <g style="clip-path:url(#id18)">
    </g>
   </g>
   <g>
    <line class="fil0" x1="7790.41" y1="9314.03" x2="7464.5" y2= "9900.65" />
    <g style="clip-path:url(#id19)">
    </g>
   </g>
   <g>
    <path class="fil0" d="M7464.5 9900.65c569.84,155.73 1178.17,-29.69 1562.7,-476.93 -409.71,134.94 -857.39,95.1 -1236.79,-109.69l-325.91 586.62z"/>
    <g style="clip-path:url(#id20)">
    </g>
   </g>
   <g>
    <line class="fil0" x1="6761.5" y1="10281.85" x2="6336.7" y2= "10799.4" />
    <g style="clip-path:url(#id21)">
    </g>
   </g>
   <g>
    <path class="fil0" d="M6336.7 10799.4c444.08,248.18 991.13,220.52 1407.36,-71.72 -377.88,5.68 -738.63,-158.12 -982.56,-445.83l-424.8 517.55z"/>
    <g style="clip-path:url(#id22)">
    </g>
   </g>
   <g>
    <line class="fil0" x1="5279.68" y1="11319.51" x2="5557.47" y2= "11052.89" />
    <g style="clip-path:url(#id23)">
    </g>
   </g>
   <g>
    <path class="fil0" d="M5279.68 11319.51l277.79 -266.62c138.29,270.58 390.16,465.58 687.43,531.88 -340.01,190 -770.5,71.36 -965.22,-265.26z"/>
    <g style="clip-path:url(#id24)">
    </g>
   </g>
   <path class="fil1" d="M1667.93 13886.53l0 -203.73 93.13 0 0 -954.62 -93.13 0 0 -203.73 530.02 0 83.11 536.17 23.28 0 85.05 -536.17 566.88 0 0 203.73 -89.25 0 0 954.62 89.25 0 0 203.73 -485.07 0 0 -203.73 71.8 0 0 -975.31 -20.7 0 -217.96 1179.04 -108.33 0 -220.22 -1179.04 -24.58 0 0 975.31 71.79 0 0 203.73 -355.07 0zm1398.94 0l0 -203.73 131.94 0 0 -954.62 -131.94 0 0 -203.73 595.66 0 0 203.73 -139.7 0 0 954.62 139.7 0 0 203.73 -595.66 0zm684.92 0l0 -203.73 98.95 0 0 -954.62 -98.95 0 0 -203.73 506.41 0 0 203.73 -83.43 0 0 954.62 65.97 0 0 203.73 -488.95 0zm584.02 0l0 -203.73 68.56 0 -197.26 -510.29 233.48 -444.33 -87.32 0 0 -203.73 397.76 0 0 203.73 -81.17 0 -183.03 348.28 237.04 606.34 83.43 0 0 203.73 -471.49 0zm473.43 0l0 -203.73 90.87 0 145.2 -954.62 -86.67 0 0 -203.73 752.83 0 0 203.73 -90.87 0 154.9 954.62 85.37 0 0 203.73 -465.66 0 0 -203.73 85.69 0 -32.98 -254.18 -223.14 0 -31.36 254.18 83.43 0 0 203.73 -467.61 0zm436.56 -626.71l178.19 0 -71.47 -566.56 -36.87 0 -69.85 566.56zm694.3 626.71l0 -203.73 83.43 0 0 -954.62 -83.43 0 0 -203.73 506.41 0c125.15,0 224.43,37.84 297.51,113.19 73.41,75.34 109.95,171.06 109.95,286.51 0,62.41 -10.35,114.8 -30.72,156.84 -20.7,41.72 -54.97,80.85 -103.16,116.74l105.1 485.07 55.95 0 0 203.73 -297.84 0 -129.35 -597.61 -106.39 0 0 393.88 83.43 0 0 203.73 -490.89 0zm407.46 -1168.05l0 374.48c79.23,0 129.35,-15.2 150.69,-45.6 21.02,-30.4 31.7,-79.55 31.7,-147.79 0,-58.2 -10.03,-102.83 -30.08,-134.2 -19.73,-31.37 -70.5,-46.89 -152.31,-46.89zm768.67 1168.05l0 -203.73 110.6 0 0 -954.62 -114.48 0 0 298.81 -203.72 0 0 -502.54 960.43 0 0 502.54 -203.73 0 0 -298.81 -114.47 0 0 954.62 110.59 0 0 203.73 -545.22 0zm628.01 -364.77l0 -228.96 500.59 0 0 228.96 -500.59 0zm617.01 364.77l0 -203.73 118.35 0 0 -954.62 -118.35 0 0 -203.73 919.69 0 0 432.69 -242.54 0 0 -228.96 -234.77 0 0 360.89 180.45 0 0 203.73 -180.45 0 0 390 234.77 0 0 -240.59 242.54 0 0 444.32 -919.69 0zm1047.43 0l0 -203.73 85.37 0 0 -954.62 -85.37 0 0 -203.73 391.29 0c103.16,238.01 194.67,509.65 274.22,814.92l17.14 0c-8.73,-200.49 -13.25,-315.29 -13.25,-345.05l0 -266.14 -79.56 0 0 -203.73 357.02 0 0 203.73 -73.74 0 0 1169.99 -251.91 0 -104.45 -272.93c-46.24,-118.68 -87.31,-230.89 -123.85,-336.32 -36.22,-105.42 -70.82,-216.66 -103.81,-333.4l-18.11 0c11.97,157.16 18.11,311.09 18.11,461.14l0 266.14 73.73 0 0 203.73 -362.83 0zm1053.25 0l0 -203.73 118.35 0 0 -954.62 -118.35 0 0 -203.73 919.69 0 0 432.69 -242.54 0 0 -228.96 -234.77 0 0 360.89 180.45 0 0 203.73 -180.45 0 0 390 234.77 0 0 -240.59 242.54 0 0 444.32 -919.69 0zm1055.19 0l0 -203.73 83.43 0 0 -954.62 -83.43 0 0 -203.73 506.41 0c125.15,0 224.43,37.84 297.51,113.19 73.41,75.34 109.95,171.06 109.95,286.51 0,62.41 -10.35,114.8 -30.72,156.84 -20.7,41.72 -54.97,80.85 -103.16,116.74l105.1 485.07 55.95 0 0 203.73 -297.84 0 -129.35 -597.61 -106.39 0 0 393.88 83.43 0 0 203.73 -490.89 0zm407.46 -1168.05l0 374.48c79.23,0 129.35,-15.2 150.69,-45.6 21.02,-30.4 31.7,-79.55 31.7,-147.79 0,-58.2 -10.03,-102.83 -30.08,-134.2 -19.73,-31.37 -70.5,-46.89 -152.31,-46.89zm1234.02 735.37l-91.2 0 0 -203.73 415.22 0c0,125.15 -8.41,225.72 -25.55,301.39 -17.13,75.99 -45.27,140.99 -84.4,195 -39.13,54 -86.66,94.1 -142.61,120.29 -55.94,26.2 -119.33,39.13 -190.15,39.13 -145.84,0 -260.96,-59.82 -345.04,-179.8 -84.08,-119.97 -126.12,-291.36 -126.12,-513.52 0,-224.11 33.95,-398.08 102.19,-521.94 68.23,-123.85 163.95,-185.62 287.16,-185.62 82.78,0 153.61,40.1 212.14,120.62l3.88 0 0 -101.22 217.31 0 0 463.73 -217.31 0c-1.94,-85.05 -14.88,-148.75 -39.45,-190.79 -24.26,-42.37 -56.6,-63.39 -97.02,-63.39 -48.83,0 -79.87,27.81 -93.46,83.44 -13.58,55.62 -20.37,174.62 -20.37,357.01 0,144.55 3.24,251.91 10.03,322.08 6.46,69.85 17.78,117.71 34.27,142.61 16.5,25.23 40.43,37.84 72.76,37.84 76.65,0 115.77,-74.38 117.72,-223.13zm416.84 432.68l0 -203.73 131.94 0 0 -954.62 -131.94 0 0 -203.73 595.66 0 0 203.73 -139.7 0 0 954.62 139.7 0 0 203.73 -595.66 0z"/>
  </g>
 </g>
</svg>
